<svg width="250" height="250" viewBox="0 0 250 250" fill="none" xmlns="http://www.w3.org/2000/svg">
<path d="M250 125C250 194.036 194.036 250 125 250C55.9644 250 0 194.036 0 125C0 55.9644 55.9644 0 125 0C194.036 0 250 55.9644 250 125Z" fill="#141414"/>
<path d="M163.381 114.23C168.346 116.403 170.853 118.181 174.022 123.985V131.079C171.014 137.061 167.873 139.603 160.277 143.051H131.456L134.56 130.193H156.286C162.494 127.089 159.39 119.995 154.513 119.551C153.538 114.7 155.389 113.49 163.381 114.23Z" fill="white"/>
<path d="M168.701 104.476L171.805 92.0612C171.805 92.0612 150.079 91.174 142.541 92.061C132.787 94.7212 130.126 101.815 129.24 103.589V109.796C133.23 121.325 150.079 123.542 149.192 115.56C142.985 111.57 142.098 108.023 146.532 104.476H168.701Z" fill="white"/>
<path d="M150.966 116.004H152.739V117.778H150.966V116.004Z" fill="white"/>
<path d="M116.381 112.457H124.806V122.211H116.381V117.778L117.268 117.777V116.004L116.381 116.004V112.457Z" fill="white"/>
<path d="M111.947 115.56H114.608V118.221H111.947V115.56Z" fill="white"/>
<path fill-rule="evenodd" clip-rule="evenodd" d="M31.25 142.608H46.3253L48.9857 136.4H66.7213L69.8251 142.608H84.0136C84.0136 142.608 72.4854 92.0612 57.8535 92.0612C43.2216 92.0611 31.25 142.608 31.25 142.608ZM51.646 124.872H52.5328V110.683H53.4196V111.57H54.3064V112.457H55.1932V108.023H56.0799V106.249H56.9667V105.363H57.8535V106.249H58.7403V108.023H59.6271V112.457H60.5139V111.57H61.4006V110.683H62.2874V124.872H63.1742V125.759H58.7403V126.645H57.8535V127.532H56.9667V126.645H56.0799V125.759H51.646V124.872Z" fill="white"/>
<path fill-rule="evenodd" clip-rule="evenodd" d="M208.163 114.231C213.128 116.403 215.636 118.181 218.805 123.985V131.08C215.796 137.061 212.656 139.603 205.059 143.051H176.239L179.343 130.193H201.069C207.276 127.089 204.173 119.995 199.295 119.551C198.321 114.7 200.171 113.49 208.163 114.231ZM211.267 121.325V119.551H213.04V121.325H211.267Z" fill="white"/>
<path d="M213.484 104.476L216.588 92.0614C216.588 92.0614 194.861 91.1743 187.324 92.0612C177.569 94.7214 174.909 101.816 174.022 103.589V109.797C178.013 121.325 194.861 123.542 193.975 115.561C187.767 111.57 186.88 108.023 191.314 104.476H213.484Z" fill="white"/>
<path d="M195.748 116.004H197.522V117.778H195.748V116.004Z" fill="white"/>
<path d="M125.249 92.0612V104.476H101.306V112.457H110.174V116.004H109.287V117.778H110.174V122.212H101.306V129.306H126.136V142.608H86.2306V96.0515H87.1173V94.7213H88.0041V93.8345H88.8909V92.9477H89.7777V92.061L125.249 92.0612Z" fill="white"/>
<path d="M56.9667 114.23V113.344H57.8535V114.23H58.7403V115.117H57.8535V116.004H56.9667V115.117H56.0799V114.23H56.9667Z" fill="white"/>
<path d="M201.346 150.208L198.887 158.176H196.275L199.981 148.088H201.637L201.346 150.208ZM203.383 158.176L200.917 150.208L200.598 148.088H202.274L206.002 158.176H203.383ZM203.286 154.414V156.291H198.111V154.414H203.286Z" fill="white"/>
<path d="M193.497 154.76H195.921C195.889 155.462 195.7 156.081 195.353 156.617C195.007 157.152 194.527 157.57 193.912 157.871C193.303 158.166 192.582 158.314 191.751 158.314C191.076 158.314 190.474 158.201 189.943 157.975C189.416 157.748 188.968 157.423 188.599 156.998C188.234 156.573 187.954 156.058 187.76 155.453C187.571 154.848 187.476 154.167 187.476 153.409V152.862C187.476 152.104 187.576 151.423 187.774 150.818C187.977 150.208 188.264 149.691 188.633 149.266C189.007 148.837 189.455 148.509 189.977 148.282C190.499 148.056 191.079 147.943 191.716 147.943C192.594 147.943 193.335 148.1 193.94 148.414C194.545 148.728 195.014 149.16 195.346 149.71C195.679 150.255 195.875 150.876 195.935 151.573H193.51C193.501 151.194 193.437 150.878 193.316 150.624C193.196 150.365 193.007 150.171 192.748 150.042C192.49 149.913 192.146 149.848 191.716 149.848C191.416 149.848 191.155 149.904 190.933 150.014C190.712 150.125 190.527 150.301 190.379 150.541C190.231 150.781 190.12 151.093 190.046 151.476C189.977 151.855 189.943 152.312 189.943 152.848V153.409C189.943 153.945 189.975 154.402 190.04 154.781C190.104 155.16 190.208 155.469 190.351 155.709C190.494 155.949 190.679 156.127 190.906 156.243C191.136 156.353 191.418 156.409 191.751 156.409C192.12 156.409 192.432 156.351 192.686 156.236C192.94 156.116 193.136 155.935 193.275 155.695C193.413 155.451 193.487 155.139 193.497 154.76Z" fill="white"/>
<path d="M183.797 148.088H186.229V154.677C186.229 155.462 186.065 156.127 185.737 156.672C185.409 157.213 184.95 157.621 184.359 157.898C183.767 158.176 183.072 158.314 182.273 158.314C181.483 158.314 180.788 158.176 180.188 157.898C179.592 157.621 179.126 157.213 178.789 156.672C178.456 156.127 178.29 155.462 178.29 154.677V148.088H180.728V154.677C180.728 155.093 180.788 155.432 180.908 155.695C181.029 155.954 181.204 156.143 181.435 156.263C181.666 156.383 181.945 156.444 182.273 156.444C182.606 156.444 182.885 156.383 183.112 156.263C183.338 156.143 183.509 155.954 183.624 155.695C183.74 155.432 183.797 155.093 183.797 154.677V148.088Z" fill="white"/>
<path d="M173.052 150.208L170.593 158.176H167.981L171.687 148.088H173.343L173.052 150.208ZM175.089 158.176L172.623 150.208L172.304 148.088H173.98L177.708 158.176H175.089ZM174.992 154.414V156.291H169.817V154.414H174.992Z" fill="white"/>
<path d="M165.203 154.76H167.628C167.595 155.462 167.406 156.081 167.059 156.617C166.713 157.152 166.233 157.57 165.618 157.871C165.009 158.166 164.288 158.314 163.457 158.314C162.783 158.314 162.18 158.201 161.649 157.975C161.122 157.748 160.674 157.423 160.305 156.998C159.94 156.573 159.66 156.058 159.466 155.453C159.277 154.848 159.182 154.167 159.182 153.409V152.862C159.182 152.104 159.282 151.423 159.48 150.818C159.683 150.208 159.97 149.691 160.339 149.266C160.713 148.837 161.161 148.509 161.683 148.282C162.205 148.056 162.785 147.943 163.422 147.943C164.3 147.943 165.041 148.1 165.646 148.414C166.251 148.728 166.72 149.16 167.052 149.71C167.385 150.255 167.581 150.876 167.641 151.573H165.217C165.207 151.194 165.143 150.878 165.023 150.624C164.903 150.365 164.713 150.171 164.454 150.042C164.196 149.913 163.852 149.848 163.422 149.848C163.122 149.848 162.861 149.904 162.639 150.014C162.418 150.125 162.233 150.301 162.085 150.541C161.937 150.781 161.826 151.093 161.753 151.476C161.683 151.855 161.649 152.312 161.649 152.848V153.409C161.649 153.945 161.681 154.402 161.746 154.781C161.81 155.16 161.914 155.469 162.057 155.709C162.201 155.949 162.385 156.127 162.612 156.243C162.843 156.353 163.124 156.409 163.457 156.409C163.826 156.409 164.138 156.351 164.392 156.236C164.646 156.116 164.842 155.935 164.981 155.695C165.12 155.451 165.193 155.139 165.203 154.76Z" fill="white"/>
<path d="M157.755 148.088V158.176H155.33V148.088H157.755Z" fill="white"/>
<path d="M153.633 148.088V158.176H151.208L147.64 151.899V158.176H145.209V148.088H147.64L151.208 154.365V148.088H153.633Z" fill="white"/>
<path d="M141.246 148.088H143.677V154.677C143.677 155.462 143.513 156.127 143.186 156.672C142.858 157.213 142.398 157.621 141.807 157.898C141.216 158.176 140.521 158.314 139.722 158.314C138.932 158.314 138.237 158.176 137.636 157.898C137.04 157.621 136.574 157.213 136.237 156.672C135.904 156.127 135.738 155.462 135.738 154.677V148.088H138.177V154.677C138.177 155.093 138.237 155.432 138.357 155.695C138.477 155.954 138.652 156.143 138.883 156.263C139.114 156.383 139.394 156.444 139.722 156.444C140.054 156.444 140.334 156.383 140.56 156.263C140.786 156.143 140.957 155.954 141.073 155.695C141.188 155.432 141.246 155.093 141.246 154.677V148.088Z" fill="white"/>
</svg>
